<svg width="500mm" height="50mm" version="1.1" viewBox="0 0 500 50" xmlns="http://www.w3.org/2000/svg"><defs><linearGradient id="linearGradient944" x1="158.25" x2="149.9" y1="27.572" y2="1.3416" gradientUnits="userSpaceOnUse"><stop stop-color="#e0e0e0" stop-opacity=".86611" offset="0"/><stop stop-color="#e0e0e0" stop-opacity="0" offset="1"/></linearGradient></defs><rect width="500" height="50" fill="#236dbb" style="paint-order:stroke fill markers"/><rect id="sky" transform="scale(1,-1)" y="-22.133" width="500" height="22.133" fill="#a4dff5" style="paint-order:stroke fill markers"/><path id="stars" d="m14.54 18.551c-20.366 9.8302-13.458-28.825 3.0414-13.118 10.565 12.279-14.964 10.278-4.1209 1.8433 10.791-9.4651 40.023 1.9098 18.054 12.229-12.477 5.951-20.579-8.6331-5.4398-11.51 8.8926-3.7696 40.002-2.4091 31.431 9.9086-9.0796 9.9094-28.646-6.2151-11.127-9.8573 6.1028-3.2887 23.898 0.71737 11.73 8.1828-3.8961-17.6 27.533-11.903 37.446-6.3548 6.2715 18.814-46.942 6.0001-16.168-3.2977 8.4806-6.3572 38.273 0.56416 22.717 9.7508-24.63 3.2805 8.1724-21.278 18.291-9.1448 17.456 6.4767-11.207 17.179-5.2988 5.9025 8.6801-9.8897 34.384-12.463 36.626 1.3612-13.895 6.6972-22.583-13.59-4.352-12.098 9.5074-3.6519 41.564 3.9625 23.464 13.966-10.574 4.8901-22.969-5.7149-7.3427-10.557 10.106-8.2233 42.847 3.5908 18.013 10.654-22.432 0.90012 5.0181-22.306 16.163-12.526 9.5385 0.11201 20.684 13.961 3.7592 10.288-14.11-11.298 17.216-13.976 25.497-10.292 10.873-0.62295 20.543 10.581 3.8567 11.305-8.82-18.604 42.783-12.09 29.325-2.6242-3.3639-16.497 42.52-11.873 30.97-1.4857-16.156 1.1589 2.3112-12.927 11.036-8.0226 6.2718-0.8114 31.386 5.5832 13.917 8.124 7.8101-14.638 26.211 6.0552 30.176-7.2712 15.359-3.5219 30.67 4.3228 44.834-2.4092 9.7184 0.14243 21.826 5.8528 16.471 0.27505 12.658-2.113 38.185-3.2373 42.91 3.062 8.8234-9.2838 34.048-0.25552 37.248 4.2646-8.1534-5.6294 8.285-7.9902 11.512-2.1985" fill="none" stroke="#a4dff5" stroke-dasharray="0.26458332, 12.69999915000000001" stroke-width=".26458"/><path transform="scale(.26458)" d="m1490.1 13.014c-0.7404-0.008564-1.3685 0.021078-1.877 0.091797-6.8292 0.94982-33.238 9.1239-61.484 18.234 12.269 3.8178 25.317 8.4499 38.176 13.354 28.688-7.3297 56.916-14.61 79.961-20.672-24.715-6.1101-46.6-10.913-54.775-11.008zm258.43 3.1074c-0.7171-0.019148-1.3333 0.015729-1.8418 0.10938-4.2528 0.78325-16.143 5.2933-31.272 11.467 81.845 17.821 174.35 42.105 174.35 42.105s-119.01-53.088-141.24-53.682zm141.24 53.682-284.15 5.4199c-0.1716 0.076907-2.1152 0.94141-2.1152 0.94141l286.26-6.3613z" fill="#5ea68c" fill-opacity=".48927"/><path transform="scale(.26458)" d="m1603.1 9.2188c-3.5603 0.044405-6.3212 0.36484-8.1602 0.99609-11.077 3.8024-69.881 19.114-130.02 34.479-37.356-14.245-76.472-26.362-92.67-22.096-34.218 9.0135-283.02 69.432-290.38 68.873l467.41-10.834s-3.4744-1.635-9.0058-4.168l349.5-6.666s-233.28-61.25-286.68-60.584z" fill="#5ea68c" fill-opacity=".70293"/><path d="m49.037 25c-17.663 2.5075-40.999 6.7492-30.895 10.637 16.22 6.2409 56.901-5.2207 85.422-4.9138 28.606 0.30771 52.892 1.8946 81.393 4.6097 6.9049 0.67838 30.464-3.652 37.688-5.4532 7.2242-1.8013 4.8801-3.2331 6.2371-3.1839 1.357 0.04914-0.99857 2.4297-5.8679 3.7504-10.714 2.9061-30.297 5.8079-24.192 6.4206 19.65 1.971 42.718 4.4252 62.355 6.3295 17.473 1.6943 34.866 4.3383 52.27 6.8037h186.54v-29.763s-414.7-4.5928-450.95 4.7624z" fill="#b2aea0" stroke-width=".26458"/><path d="m156.04 27.241-0.0305-1.018s0.97465-1.6178 1.7323-1.6315c0.75758-0.0138 1.6091 1.415 1.6091 1.415l0.0422 1.2007z" fill="#342828"/><path d="m500 35.16c-88.946 8.6805-180.83-1.2571-275.48-8.9687l-49.893-6.0476c0-8.8658 216.92-2.4044 325.37-3.6066z" fill="#80ab3d"/><path d="m153.46 28.62 0.10176-1.2036s1.3529-1.7734 2.2369-1.6862c0.88396 0.0871 1.6829 1.8868 1.6829 1.8868l-0.11266 1.4206z" fill="#564242"/><path d="m138.7 29.803s7.8703-2.1355 11.826-0.92085 27.12 2.1515 35.879-0.45456c8.7592-2.606 9.7727-5.7188 9.7727-5.7188" fill="none" stroke="#cac7be" stroke-width=".79375"/><path d="m162.12 29.05 0.0434-1.2072s-1.1303-1.9229-2.0183-1.9425c-0.88803-0.0196-1.8972 1.6712-1.8972 1.6712l-0.0587 1.4239z" fill="#564242"/><path d="m150.55 30.09-0.0246-1.2077s1.1602-1.905 2.0484-1.9107c0.88822-6e-3 1.8708 1.7007 1.8708 1.7007l0.0364 1.4246z" fill="#746868"/><path id="fh" d="m193.16 33.482-0.015-1.4236 1.084-0.89066 0.99563 0.7261 0.0216 1.5842z" fill="#746868"/><path d="m157.48 27.62c0.20052-1.2348-0.76072-2.3578-1.7454-2.9727-1.1541-0.94527-0.55221-2.904 0.88144-3.129 1.6822-0.87518 0.0675-3.1074 1.5221-4.0881 0.82456-0.7476 1.7846-1.4545 2.0899-2.5871 0.90928-1.3375 0.38638-3.0899-1.2533-3.4417-1.6326-0.883-3.7238-0.69573-5.1639-1.9468-0.41699-1.2256-0.91514-2.9772-2.6483-2.8744-1.4932-0.091804-3.1382-0.12292-4.3687-1.0933-0.49826-1.0531 1.639-2.5223-0.1756-3.1118-0.82879-0.52887-2.1657-0.404-2.7931-0.99105 1.9727-0.60933 4.0541-0.042696 6.0715-0.042518 1.1862-0.50214 1.9157 1.1935 0.54962 1.5027-1.305 0.37258-1.9219 2.2461-0.19482 2.4103 1.3261 0.3732 2.7554 0.25238 4.0458 0.77218 0.13092 1.1417-0.41429 3.0185 1.4114 3.0151 2.0702 0.40286 4.2579 0.50222 6.1842 1.4328 1.1725 0.515 2.001 1.8159 1.626 3.1052-0.53707 1.6899-2.3676 2.3087-3.6874 3.2601-0.99603 0.64351-2.171 1.5442-1.7631 2.9116 0.84739 1.1591 0.32197 2.4611-0.8411 3.17-1.3151 1.0011 0.46326 2.1045 0.37896 3.233 3e-3 0.48802 0.0996 1.0082-0.12608 1.4653z" fill="url(#linearGradient944)"/><path id="trailTemplate" class="trail" d="m156.62 30.041s36.018 2.4529 39.822-7.4593c2.309-6.0172 139.98 13.074 148.36 2.8481 6.469-7.8969 155.2-0.42998 155.2-0.42998" fill="none" stroke="#806600" stroke-linecap="round" stroke-linejoin="round" stroke-width=".52917"/><g id="crosses"><g><ellipse transform="rotate(10.339)" cx="233.73" cy="-9.3015" rx="4.4972" ry="2.8142" fill="#d2cfc7" style="paint-order:stroke fill markers"/><path d="m231.93 30.298 0.0341 2.0261" fill="none" stroke="#483737" stroke-width=".26458px"/><path d="m232.6 30.935-1.349 0.15927" fill="none" stroke="#483737" stroke-width=".26458px"/></g><g fill="none" stroke="#483737" stroke-width=".26458px"><path d="m230.38 29.428-0.21507 1.3596"/><path d="m229.8 29.803 1.0392 0.21504"/></g><g fill="none" stroke="#483737" stroke-width=".26458px"><path d="m233.91 28.909-3e-3 2.1925"/><path d="m234.56 29.693-1.3488-0.01719"/></g><g fill="none" stroke="#483737" stroke-width=".26458px"><path d="m230.15 31.714-0.27331 2.0078"/><path d="m229.36 32.361 1.3207 0.31758"/></g><g fill="none" stroke="#483737" stroke-width=".26458px"><path d="m233.9 32.971-0.27331 2.0078"/><path d="m233.15 33.528 1.3207 0.31758"/></g><g><ellipse transform="matrix(.99988 .015756 -.17434 .98469 0 0)" cx="243.99" cy="30.34" rx="4.4248" ry="2.897" fill="#d2cfc7" style="paint-order:stroke fill markers"/><path d="m238.02 32.971 0.0863 2.0245" fill="none" stroke="#483737" stroke-width=".26458px"/><path d="m237.38 33.652 1.3561 0.07885" fill="none" stroke="#483737" stroke-width=".26458px"/></g><g fill="none" stroke="#483737" stroke-width=".26458px"><path d="m235.43 31.311-0.27832 1.7555"/><path d="m234.68 31.795 1.3449 0.27766"/></g><g fill="none" stroke="#483737" stroke-width=".26458px"><path d="m227.9 29.805-3e-3 2.1925"/><path d="m228.54 30.49-1.3368 0.17983"/></g><g fill="none" stroke="#483737" stroke-width=".26458px"><path d="m231.79 33.158-3e-3 2.1925"/><path d="m232.44 33.942-1.3488-0.01719"/></g><g fill="none" stroke="#483737" stroke-width=".26458px"><path d="m237.52 30.291-3e-3 2.1925"/><path d="m238.17 31.075-1.3488-0.01719"/></g><g fill="none" stroke="#483737" stroke-width=".26458px"><path d="m242.47 32.263-0.63639 2.0981"/><path d="m242.86 33.201-1.2863-0.40619"/></g><g fill="none" stroke="#483737" stroke-width=".26458px"><path d="m236.12 34.358 0.23063 1.357"/><path d="m235.69 34.898 1.0535-0.12831"/></g><g fill="none" stroke="#483737" stroke-width=".26458px"><path d="m240.18 33.557-0.27331 2.0078"/><path d="m239.39 34.204 1.3207 0.31758"/></g><g fill="none" stroke="#483737" stroke-width=".26458px"><path d="m240.3 30.77-0.27331 2.0078"/><path d="m239.55 31.327 1.3207 0.31758"/></g></g><path id="sy" d="m126.82 33.032 6.3392-4.5131 6.8119 1.0188-2.7254 3.2631-2.5533 2.2346-1.5569-0.19383 0.18714-1.1135 4.408-3.6634-4.2448-0.66556-2.158 2.4332-3.0215 2.5007-1.6316-0.14829z" fill="#564242"/><path id="forageTemplate" class="trail forageTrail" d="m156.62 30.041s36.018 2.4529 39.822-7.4593c2.309-6.0172 89.08 6.9854 87.631-4.3968" fill="none" stroke="#806600" stroke-linecap="round" stroke-linejoin="round" stroke-width=".52917"/><path d="m424.32 28.448c-0.23331 0.04731 0.28719 0.07273 0 0zm-36.379-5.1178v-2.5e-5c1.9115-7e-3 3.8299 0.50319 4.7045 1.3429 0.20461 1.0594 1.0238 0.91883 2.8568 0.54806 3.5778-0.8122 7.431 1.2532 10.138-0.1499 5.658-1.3331 13.246-1.3352 18.303 0.62327 2.3824-2.0418 9.3352-2.0423 11.719-0.0011 0.0501 1.5258 3.1818 0.95951 5.1161 1.7131 3.9336 1.012 3.6026 3.9744-0.42253 4.8405-2.6688 1.234-7.1709-0.52701-8.3868 1.2712-5.5813 2.4253-14.373 2.4463-20.97 1.0491-3.5169 1.0891-8.8519 0.91033-11.557-0.71921-3.1352-0.05894-7.8677 0.91291-11.671 0.27634-3.3015 0.16733-5.6821-2.1358-8.4359-0.90312-4.3518 0.90592-11.024 0.21042-12.3-2.2702-1.4449-0.58074-5.328-1.0171-5.1542-2.5871-0.58812-1.9147 4.1391-3.4793 7.5823-2.5064 0.835-1.63 5.56-2.0615 7.9959-1.0098 0.96283 1.2925 2.762 0.24238 4.8623 0.56072 0.91481-0.6651 2.6921-2.3122 5.6186-2.0783z" fill="#648c23" style="paint-order:stroke fill markers"/><path d="m270.25 16.528c0.14714-0.02984-0.18113-0.04587 0 0zm16.79 2.5038v1.6e-5c-1.2056 0.0044-2.4155-0.31736-2.967-0.84692-0.12904-0.66816-0.64572-0.57949-1.8018-0.34566-2.2565 0.51224-2.7321 0.0059-4.4394 0.89083-3.5684 0.84075-4.1554 0.76968-7.3446-0.46548-1.5026 1.2877-5.8876 1.2881-7.3913 6.93e-4 -0.0316-0.9623-2.0067-0.60515-3.2266-1.0805-2.4808-0.63825-2.2721-2.5066 0.26648-3.0529 1.6832-0.77829 4.5226 0.33238 5.2894-0.80172 1.9784-2.004 8.1296-1.8307 13.226-0.66163 2.2181-0.68691 5.5828-0.57413 7.2887 0.4536 1.9774 0.03717 4.962-0.57576 7.3605-0.17429 2.0822-0.10553 3.5836 1.347 5.3204 0.56959 2.7446-0.57135 6.9525-0.13271 7.7572 1.4318 0.91125 0.36626 3.3603 0.64146 3.2506 1.6317 0.37092 1.2076-2.6104 2.1943-4.7821 1.5807-0.52662 1.028-9.6598 0.57626-11.196-0.08705-0.60725-0.81518-1.742-0.15287-3.0666-0.35364-0.57696 0.41947-1.6979 1.4583-3.5436 1.3107z" fill="#648c23" style="paint-order:stroke fill markers"/><path id="fishTrail" class="trail" d="m157.91 30.274c8.4806-0.34713 23.807 2.7673 36.284 3.8328" fill="none" stroke="#806600" stroke-linecap="round" stroke-width=".52917"/><path d="m155.93 31.08-0.0246-1.2077s1.1602-1.905 2.0484-1.9107c0.88822-6e-3 1.8708 1.7007 1.8708 1.7007l0.0364 1.4246z" fill="#746868"/><g id="ship" transform="matrix(.44418 0 0 .44418 87.64 15.341)" stroke-width="2.2514"><g><path d="m77.232 40.268s2.0323-1.5999 4.497-0.90806c2.4647 0.69185 3.243 1.3405 3.243 1.3405l-6.4861-18.046z" fill="#fcf9e9"/><path d="m77.059 41.522 1.254 3.7619 15.913-0.73509s0.56213-0.51889 0.90805-1.5567 0.38917-2.3782 0.38917-2.3782c-4.1923 1.3729-5.8807 2.735-9.8156 2.5944l-0.12972-1.1675c-2.8281-0.34543-5.6743-0.38738-8.5184-0.51888z" fill="#342828"/><path d="m83.977 42.387s0.73509-1.8161 3.6755-1.9458c2.9404-0.12972 7.2644 0.90805 7.2644 0.90805l-13.318-24.907z" fill="#fcf9e9"/></g><g fill="#800000" shape-rendering="auto" stroke="#a00" stroke-width=".59567px"><path d="m86.215 30.014-0.26367 0.01953 0.30859 4.1289 0.26367-0.01953z"/><path d="m87.885 31.832-3.3125 0.24805 0.01953 0.26367 3.3125-0.24805z"/><path d="m80.287 32.785-0.32031 2.9727 0.26367 0.02734 0.32031-2.9707z"/><path d="m79.082 34.025-0.0293 0.26367 2.3828 0.25586 0.0293-0.26172z"/></g></g><path id="hull" d="m132.03 30.593s0.88154 0.86876 2.338 0.83044c1.5076-0.19165 2.108-1.1626 2.6063-1.7886 0.84371-0.96244 0.85345-1.5117 0.54938-2.4274l-1.6245-0.44784-1.0712 0.84389-0.14054 0.89432z" fill="#342828"/></svg>
